Coordinates
version=1
nRows=11
nColumns=40
inDegrees=yes

Units are S.I. units (second, meters, Newtons, ...)
If the header above contains a line with 'inDegrees', this indicates whether rotational values are in degrees (yes) or radians (no).

endheader
time	pelvis_tilt	pelvis_list	pelvis_rotation	pelvis_tx	pelvis_ty	pelvis_tz	hip_flexion_r	hip_adduction_r	hip_rotation_r	knee_angle_r	knee_angle_r_beta	ankle_angle_r	subtalar_angle_r	mtp_angle_r	hip_flexion_l	hip_adduction_l	hip_rotation_l	knee_angle_l	knee_angle_l_beta	ankle_angle_l	subtalar_angle_l	mtp_angle_l	lumbar_extension	lumbar_bending	lumbar_rotation	arm_flex_r	arm_add_r	arm_rot_r	elbow_flex_r	pro_sup_r	wrist_flex_r	wrist_dev_r	arm_flex_l	arm_add_l	arm_rot_l	elbow_flex_l	pro_sup_l	wrist_flex_l	wrist_dev_l
      2.98000000	     -0.35564229	      7.59336512	    -89.87410436	      0.26978269	      0.93300148	      0.87274089	     22.97825154	     -3.84651769	     -5.75699656	     59.05765883	      1.03075060	      1.47431270	      0.00000000	      0.00000000	     15.66636380	      4.57978041	     -0.86370358	     12.83413319	      0.22399788	      0.36983485	      0.00000000	      0.00000000	      3.26845115	     -0.49018335	     -6.63629454	      0.00000000	      0.00000000	      0.00000000	      0.00000000	      0.00000000	      0.00000000	      0.00000000	      0.00000000	      0.00000000	      0.00000000	      0.00000000	      0.00000000	      0.00000000	      0.00000000
      2.99000000	     -0.46100020	      7.59537547	    -89.87096997	      0.26968600	      0.93361572	      0.87939524	     23.87838175	     -3.73838397	     -5.69665092	     57.97894597	      1.01192350	      2.21888696	      0.00000000	      0.00000000	     14.99816005	      4.47869693	     -0.79990773	     12.44462024	      0.21719960	      0.52903823	      0.00000000	      0.00000000	      3.18218177	     -0.38534678	     -6.73712540	      0.00000000	      0.00000000	      0.00000000	      0.00000000	      0.00000000	      0.00000000	      0.00000000	      0.00000000	      0.00000000	      0.00000000	      0.00000000	      0.00000000	      0.00000000	      0.00000000
      3.00000000	     -0.42556290	      7.68549581	    -89.86665101	      0.26968665	      0.93394276	      0.88591036	     24.83080988	     -3.79808462	     -5.63829139	     56.73233032	      0.99016596	      2.61565556	      0.00000000	      0.00000000	     14.60500237	      4.51904998	     -0.89161999	     12.39414359	      0.21631861	      0.72303923	      0.00000000	      0.00000000	      3.19569800	     -0.43994979	     -6.85527287	      0.00000000	      0.00000000	      0.00000000	      0.00000000	      0.00000000	      0.00000000	      0.00000000	      0.00000000	      0.00000000	      0.00000000	      0.00000000	      0.00000000	      0.00000000	      0.00000000
      3.01000000	     -0.68346537	      7.51594056	    -89.86320700	      0.26944160	      0.93478745	      0.89268002	     25.34690019	     -3.42651510	     -5.56769377	     55.15661333	      0.96266451	      3.31882176	      0.00000000	      0.00000000	     13.53098192	      4.26714533	     -0.63268416	     11.57712584	      0.20205896	      0.78603176	      0.00000000	      0.00000000	      2.92035256	     -0.13909382	     -6.92024945	      0.00000000	      0.00000000	      0.00000000	      0.00000000	      0.00000000	      0.00000000	      0.00000000	      0.00000000	      0.00000000	      0.00000000	      0.00000000	      0.00000000	      0.00000000	      0.00000000
      3.02000000	     -0.79937666	      7.60871582	    -89.85867846	      0.26924302	      0.93506203	      0.89911900	     26.14880207	     -3.21935002	     -5.48363737	     53.49347917	      0.93363734	      3.70357801	     -0.00000000	      0.00000000	     13.01540601	      4.14922937	     -0.52300031	     11.26498178	      0.19661102	      0.98577223	      0.00000000	     -0.00000000	      2.92803213	     -0.01388601	     -6.99816323	      0.00000000	      0.00000000	     -0.00000000	      0.00000000	      0.00000000	     -0.00000000	      0.00000000	     -0.00000000	      0.00000000	     -0.00000000	      0.00000000	      0.00000000	      0.00000000	      0.00000000
      3.03000000	     -0.88435334	      7.68358722	    -89.85458199	      0.26901610	      0.93528766	      0.90552591	     26.86265846	     -3.02566582	     -5.38994284	     51.66553176	      0.90173364	      3.93193258	      0.00000000	      0.00000000	     12.46853687	      4.05587769	     -0.49093696	     10.92208408	      0.19062633	      1.21040332	      0.00000000	      0.00000000	      2.91556181	      0.08000110	     -7.07321014	      0.00000000	      0.00000000	      0.00000000	      0.00000000	      0.00000000	      0.00000000	      0.00000000	      0.00000000	      0.00000000	      0.00000000	      0.00000000	      0.00000000	      0.00000000	      0.00000000
      3.04000000	     -0.97610016	      7.55362469	    -89.85034408	      0.26877997	      0.93577837	      0.91205406	     27.23497431	     -2.80421464	     -5.31040645	     49.60378771	      0.86574942	      3.96283945	      0.00000000	      0.00000000	     11.64254716	      3.95778133	     -0.41015975	     10.47872082	      0.18288818	      1.29149695	     -0.00000000	     -0.00000000	      2.66309534	      0.18278525	     -7.13202009	      0.00000000	      0.00000000	      0.00000000	      0.00000000	      0.00000000	      0.00000000	     -0.00000000	     -0.00000000	      0.00000000	     -0.00000000	      0.00000000	      0.00000000	     -0.00000000	     -0.00000000
      3.05000000	     -1.03926958	      7.66904744	    -89.84544689	      0.26850760	      0.93579542	      0.91837998	     27.86568074	     -2.59373297	     -5.20202261	     47.48881136	      0.82883612	      3.95715207	      0.00000000	      0.00000000	     11.17567127	      3.88612186	     -0.32634813	     10.19376444	      0.17791475	      1.49723531	      0.00000000	      0.00000000	      2.69012820	      0.25285565	     -7.17795284	      0.00000000	      0.00000000	      0.00000000	      0.00000000	      0.00000000	      0.00000000	      0.00000000	      0.00000000	      0.00000000	      0.00000000	      0.00000000	      0.00000000	      0.00000000	      0.00000000
      3.06000000	     -1.10181555	      7.57985628	    -89.84020668	      0.26822468	      0.93606409	      0.92481012	     28.17474872	     -2.37613458	     -5.11988259	     45.19552038	      0.78881064	      3.81425849	     -0.00000000	      0.00000000	     10.41179471	      3.81293643	     -0.28381340	      9.77425364	      0.17059291	      1.64532648	      0.00000000	     -0.00000000	      2.46601067	      0.32836768	     -7.23245083	      0.00000000	      0.00000000	     -0.00000000	      0.00000000	      0.00000000	      0.00000000	     -0.00000000	     -0.00000000	     -0.00000000	     -0.00000000	      0.00000000	      0.00000000	     -0.00000000	     -0.00000000
      3.07000000	     -1.14724809	      7.71127341	    -89.83367378	      0.26791902	      0.93591593	      0.93110789	     28.69782606	     -2.15298343	     -5.01256097	     42.84338502	      0.74775813	      3.60080691	      0.00000000	      0.00000000	      9.96505984	      3.75961679	     -0.17002994	      9.49364447	      0.16569535	      1.86011070	      0.00000000	      0.00000000	      2.51366123	      0.38530576	     -7.26645655	      0.00000000	      0.00000000	      0.00000000	      0.00000000	      0.00000000	      0.00000000	      0.00000000	      0.00000000	      0.00000000	      0.00000000	      0.00000000	      0.00000000	      0.00000000	      0.00000000
      3.08000000	     -1.16944422	      7.65794534	    -89.82782956	      0.26758497	      0.93596114	      0.93751905	     28.93959919	     -1.94570386	     -4.91858394	     40.36658244	      0.70452977	      3.31207076	     -0.00000000	      0.00000000	      9.27835531	      3.72206553	     -0.13112333	      9.14625597	      0.15963228	      2.02334072	      0.00000000	     -0.00000000	      2.33641477	      0.41414806	     -7.29778489	     -0.00000000	     -0.00000000	      0.00000000	      0.00000000	      0.00000000	      0.00000000	      0.00000000	      0.00000000	      0.00000000	     -0.00000000	      0.00000000	      0.00000000	      0.00000000	     -0.00000000
